<mxfile host="Electron" modified="2024-03-20T05:52:32.085Z" agent="Mozilla/5.0 (Windows NT 10.0; Win64; x64) AppleWebKit/537.36 (KHTML, like Gecko) draw.io/21.6.8 Chrome/114.0.5735.289 Electron/25.5.0 Safari/537.36" etag="k5KuWlB7918EzlXYMnlW" version="21.6.8" type="device">
  <diagram name="Page-1" id="03018318-947c-dd8e-b7a3-06fadd420f32">
    <mxGraphModel dx="1120" dy="524" grid="1" gridSize="10" guides="1" tooltips="1" connect="1" arrows="1" fold="1" page="1" pageScale="1" pageWidth="1100" pageHeight="850" background="none" math="0" shadow="0">
      <root>
        <mxCell id="0" />
        <mxCell id="1" parent="0" />
        <mxCell id="677b7b8949515195-1" value="" style="whiteSpace=wrap;html=1;rounded=0;shadow=0;labelBackgroundColor=none;strokeColor=#000000;strokeWidth=1;fillColor=none;fontFamily=Verdana;fontSize=12;fontColor=#000000;align=center;comic=1;" parent="1" vertex="1">
          <mxGeometry x="20" y="20" width="1250" height="1340" as="geometry" />
        </mxCell>
        <mxCell id="677b7b8949515195-2" value="Welcome to Piha&lt;br&gt;Surf on in!" style="whiteSpace=wrap;html=1;rounded=0;shadow=0;labelBackgroundColor=none;strokeWidth=1;fontFamily=Verdana;fontSize=28;align=center;comic=1;" parent="1" vertex="1">
          <mxGeometry x="40" y="50" width="360" height="80" as="geometry" />
        </mxCell>
        <mxCell id="677b7b8949515195-3" value="Search site" style="strokeWidth=1;shadow=0;dashed=0;align=center;html=1;shape=mxgraph.mockup.forms.searchBox;strokeColor=#999999;mainText=;strokeColor2=#008cff;fontColor=#666666;fontSize=17;align=left;spacingLeft=3;rounded=0;labelBackgroundColor=none;comic=1;" parent="1" vertex="1">
          <mxGeometry x="490" y="90" width="220" height="30" as="geometry" />
        </mxCell>
        <mxCell id="677b7b8949515195-4" value="Twitter" style="text;html=1;points=[];align=left;verticalAlign=top;spacingTop=-4;fontSize=14;fontFamily=Verdana" parent="1" vertex="1">
          <mxGeometry x="490" y="40" width="60" height="20" as="geometry" />
        </mxCell>
        <mxCell id="677b7b8949515195-5" value="Facebook" style="text;html=1;points=[];align=left;verticalAlign=top;spacingTop=-4;fontSize=14;fontFamily=Verdana" parent="1" vertex="1">
          <mxGeometry x="563" y="40" width="60" height="20" as="geometry" />
        </mxCell>
        <mxCell id="677b7b8949515195-6" value="Subscribe" style="text;html=1;points=[];align=left;verticalAlign=top;spacingTop=-4;fontSize=14;fontFamily=Verdana" parent="1" vertex="1">
          <mxGeometry x="640" y="40" width="60" height="20" as="geometry" />
        </mxCell>
        <mxCell id="677b7b8949515195-9" value="" style="line;strokeWidth=1;html=1;rounded=0;shadow=0;labelBackgroundColor=none;fillColor=none;fontFamily=Verdana;fontSize=14;fontColor=#000000;align=center;comic=1;" parent="1" vertex="1">
          <mxGeometry x="20" y="140" width="1060" height="10" as="geometry" />
        </mxCell>
        <mxCell id="677b7b8949515195-10" value="" style="whiteSpace=wrap;html=1;rounded=0;shadow=0;labelBackgroundColor=none;strokeWidth=1;fillColor=none;fontFamily=Verdana;fontSize=12;align=center;comic=1;" parent="1" vertex="1">
          <mxGeometry x="30" y="160" width="1040" height="50" as="geometry" />
        </mxCell>
        <mxCell id="677b7b8949515195-11" value="Home" style="text;html=1;points=[];align=left;verticalAlign=top;spacingTop=-4;fontSize=14;fontFamily=Verdana" parent="1" vertex="1">
          <mxGeometry x="50" y="175" width="60" height="20" as="geometry" />
        </mxCell>
        <mxCell id="677b7b8949515195-12" value="News" style="text;html=1;points=[];align=left;verticalAlign=top;spacingTop=-4;fontSize=14;fontFamily=Verdana" parent="1" vertex="1">
          <mxGeometry x="130" y="175" width="60" height="20" as="geometry" />
        </mxCell>
        <mxCell id="677b7b8949515195-13" value="Issues" style="text;html=1;points=[];align=left;verticalAlign=top;spacingTop=-4;fontSize=14;fontFamily=Verdana" parent="1" vertex="1">
          <mxGeometry x="190" y="175" width="60" height="20" as="geometry" />
        </mxCell>
        <mxCell id="677b7b8949515195-14" value="The place" style="text;html=1;points=[];align=left;verticalAlign=top;spacingTop=-4;fontSize=14;fontFamily=Verdana" parent="1" vertex="1">
          <mxGeometry x="260" y="175" width="80" height="20" as="geometry" />
        </mxCell>
        <mxCell id="677b7b8949515195-15" value="&lt;div style=&quot;text-align: justify&quot;&gt;Piha is New Zealand&#39;s most famous surf beach. Situated on the west coast of the North Island, 40 kms from the city of Auckland, this black iron-sand beach has a reputation for awesome surf which rolls in over the Tasman Sea. When Uncle Toby&#39;s Iron Man contest was held at Piha in 1997, canoes were snapped in two and they&#39;ve never come back. It can be moody, misty and mysterious, wild, wet and wind-swept. The power goes off, the phone lines come down, sometimes the road in (and out) gets blocked. Living here is not for the faint-hearted.&lt;br&gt;&lt;/div&gt;" style="whiteSpace=wrap;html=1;rounded=0;shadow=0;labelBackgroundColor=none;strokeWidth=1;fillColor=none;fontFamily=Verdana;fontSize=12;align=center;verticalAlign=top;spacing=10;comic=1;" parent="1" vertex="1">
          <mxGeometry x="650" y="235" width="580" height="395" as="geometry" />
        </mxCell>
        <mxCell id="677b7b8949515195-26" value="" style="whiteSpace=wrap;html=1;rounded=0;shadow=0;labelBackgroundColor=none;strokeWidth=1;fillColor=none;fontFamily=Verdana;fontSize=12;align=center;comic=1;" parent="1" vertex="1">
          <mxGeometry x="80" y="673" width="230" height="167" as="geometry" />
        </mxCell>
        <mxCell id="677b7b8949515195-42" value="Things we love about piha" style="text;html=1;points=[];align=left;verticalAlign=top;spacingTop=-4;fontSize=14;fontFamily=Verdana" parent="1" vertex="1">
          <mxGeometry x="90" y="680" width="170" height="20" as="geometry" />
        </mxCell>
        <mxCell id="vwSF-gAiQmky9OiEiPcF-2" value="Things to do&amp;nbsp;" style="text;html=1;points=[];align=left;verticalAlign=top;spacingTop=-4;fontSize=14;fontFamily=Verdana" parent="1" vertex="1">
          <mxGeometry x="350" y="175" width="100" height="20" as="geometry" />
        </mxCell>
        <mxCell id="vwSF-gAiQmky9OiEiPcF-3" value="Environment" style="text;html=1;points=[];align=left;verticalAlign=top;spacingTop=-4;fontSize=14;fontFamily=Verdana" parent="1" vertex="1">
          <mxGeometry x="450" y="175" width="100" height="20" as="geometry" />
        </mxCell>
        <mxCell id="vwSF-gAiQmky9OiEiPcF-4" value="The past" style="text;html=1;points=[];align=left;verticalAlign=top;spacingTop=-4;fontSize=14;fontFamily=Verdana" parent="1" vertex="1">
          <mxGeometry x="550" y="175" width="100" height="20" as="geometry" />
        </mxCell>
        <mxCell id="vwSF-gAiQmky9OiEiPcF-5" value="Gallery" style="text;html=1;points=[];align=left;verticalAlign=top;spacingTop=-4;fontSize=14;fontFamily=Verdana" parent="1" vertex="1">
          <mxGeometry x="623" y="175" width="100" height="20" as="geometry" />
        </mxCell>
        <mxCell id="vwSF-gAiQmky9OiEiPcF-6" value="About us" style="text;html=1;points=[];align=left;verticalAlign=top;spacingTop=-4;fontSize=14;fontFamily=Verdana" parent="1" vertex="1">
          <mxGeometry x="690" y="175" width="100" height="20" as="geometry" />
        </mxCell>
        <mxCell id="vwSF-gAiQmky9OiEiPcF-7" value="Links and map&amp;nbsp;" style="text;html=1;points=[];align=left;verticalAlign=top;spacingTop=-4;fontSize=14;fontFamily=Verdana" parent="1" vertex="1">
          <mxGeometry x="760" y="175" width="110" height="20" as="geometry" />
        </mxCell>
        <mxCell id="vwSF-gAiQmky9OiEiPcF-8" value="WW1 soldiers" style="text;html=1;points=[];align=left;verticalAlign=top;spacingTop=-4;fontSize=14;fontFamily=Verdana" parent="1" vertex="1">
          <mxGeometry x="870" y="175" width="110" height="20" as="geometry" />
        </mxCell>
        <mxCell id="vwSF-gAiQmky9OiEiPcF-10" value="" style="rounded=0;whiteSpace=wrap;html=1;" parent="1" vertex="1">
          <mxGeometry x="40" y="235" width="580" height="400" as="geometry" />
        </mxCell>
        <mxCell id="vwSF-gAiQmky9OiEiPcF-11" value="&lt;font style=&quot;font-size: 36px;&quot;&gt;Image of Piha&amp;nbsp;&lt;/font&gt;" style="text;html=1;strokeColor=none;fillColor=none;align=center;verticalAlign=middle;whiteSpace=wrap;rounded=0;" parent="1" vertex="1">
          <mxGeometry x="180" y="355" width="310" height="94" as="geometry" />
        </mxCell>
        <mxCell id="vwSF-gAiQmky9OiEiPcF-12" value="Welcome to www.piha.co.nz" style="text;html=1;strokeColor=none;fillColor=none;align=center;verticalAlign=middle;whiteSpace=wrap;rounded=0;" parent="1" vertex="1">
          <mxGeometry x="50" y="600" width="190" height="30" as="geometry" />
        </mxCell>
        <mxCell id="vwSF-gAiQmky9OiEiPcF-13" value="Piha is a rich source of stories about people, places and events. You can find out about and order books about Piha and the Waitakeres here ...&lt;br&gt;Read More...&amp;nbsp;" style="whiteSpace=wrap;html=1;rounded=0;shadow=0;labelBackgroundColor=none;strokeWidth=1;fillColor=none;fontFamily=Verdana;fontSize=12;align=center;comic=1;" parent="1" vertex="1">
          <mxGeometry x="333" y="673" width="230" height="287" as="geometry" />
        </mxCell>
        <mxCell id="vwSF-gAiQmky9OiEiPcF-14" value="Once milled ferociously for its kauri, rimu and kahikatea. Now the scars are healed and the kauri rikkers poke their conical heads above puriri, mamaku and nikau. Houses nestle among ..." style="whiteSpace=wrap;html=1;rounded=0;shadow=0;labelBackgroundColor=none;strokeWidth=1;fillColor=none;fontFamily=Verdana;fontSize=12;align=center;comic=1;" parent="1" vertex="1">
          <mxGeometry x="580" y="673" width="230" height="317" as="geometry" />
        </mxCell>
        <mxCell id="vwSF-gAiQmky9OiEiPcF-15" value="" style="whiteSpace=wrap;html=1;rounded=0;shadow=0;labelBackgroundColor=none;strokeWidth=1;fillColor=none;fontFamily=Verdana;fontSize=12;align=center;comic=1;" parent="1" vertex="1">
          <mxGeometry x="840" y="670" width="230" height="150" as="geometry" />
        </mxCell>
        <mxCell id="vwSF-gAiQmky9OiEiPcF-16" value="Books" style="text;html=1;points=[];align=left;verticalAlign=top;spacingTop=-4;fontSize=14;fontFamily=Verdana" parent="1" vertex="1">
          <mxGeometry x="350" y="680" width="170" height="20" as="geometry" />
        </mxCell>
        <mxCell id="vwSF-gAiQmky9OiEiPcF-17" value="Our green valley" style="text;html=1;points=[];align=left;verticalAlign=top;spacingTop=-4;fontSize=14;fontFamily=Verdana" parent="1" vertex="1">
          <mxGeometry x="590" y="680" width="170" height="20" as="geometry" />
        </mxCell>
        <mxCell id="vwSF-gAiQmky9OiEiPcF-18" value="Upcoming events&amp;nbsp;" style="text;html=1;points=[];align=left;verticalAlign=top;spacingTop=-4;fontSize=14;fontFamily=Verdana" parent="1" vertex="1">
          <mxGeometry x="850" y="673" width="170" height="20" as="geometry" />
        </mxCell>
        <mxCell id="vwSF-gAiQmky9OiEiPcF-19" value="Black sand, burns your feet in summer, dries to a crunchy biscuit crust, piles up in the crutch of your togs, gets everywhere. Surf! Sounds like a war going on out ..&lt;br&gt;Read more..." style="text;html=1;strokeColor=none;fillColor=none;align=center;verticalAlign=middle;whiteSpace=wrap;rounded=0;" parent="1" vertex="1">
          <mxGeometry x="97.5" y="750" width="195" height="30" as="geometry" />
        </mxCell>
        <mxCell id="vwSF-gAiQmky9OiEiPcF-20" value="Image" style="rounded=0;whiteSpace=wrap;html=1;" parent="1" vertex="1">
          <mxGeometry x="350" y="705" width="120" height="60" as="geometry" />
        </mxCell>
        <mxCell id="vwSF-gAiQmky9OiEiPcF-21" value="Image" style="rounded=0;whiteSpace=wrap;html=1;" parent="1" vertex="1">
          <mxGeometry x="600" y="720" width="120" height="60" as="geometry" />
        </mxCell>
        <mxCell id="vwSF-gAiQmky9OiEiPcF-23" value="&lt;br&gt;January 25 @ 10:00 am&lt;span style=&quot;color: rgb(20, 24, 39); font-family: &amp;quot;Helvetica Neue&amp;quot;, Helvetica, -apple-system, BlinkMacSystemFont, Roboto, Arial, sans-serif; text-align: start; background-color: rgb(239, 239, 239);&quot;&gt;&amp;nbsp;-&amp;nbsp;&lt;/span&gt;&lt;span style=&quot;margin: 0px; padding: 0px; box-sizing: border-box; border: 0px; color: rgb(20, 24, 39); font-family: &amp;quot;Helvetica Neue&amp;quot;, Helvetica, -apple-system, BlinkMacSystemFont, Roboto, Arial, sans-serif; text-align: start; background-color: rgb(239, 239, 239);&quot; class=&quot;tribe-event-date-end&quot;&gt;April 30 @ 4:00 pm&amp;nbsp;&lt;/span&gt;&lt;h3 style=&quot;margin: 0px; padding: 0px; box-sizing: border-box; border: 0px; font-weight: var(--tec-font-weight-bold); text-rendering: optimizelegibility; font-size: var(--tec-font-size-2); line-height: var(--tec-line-height-3); color: rgb(22, 21, 20); font-family: var(--tec-font-family-sans-serif); text-align: start; background-color: rgb(239, 239, 239);&quot; class=&quot;tribe-events-widget-events-list__event-title tribe-common-h7&quot;&gt;&lt;a style=&quot;margin: 0px; padding: 0px; text-decoration-line: none; outline: 0px; box-sizing: border-box; border-top: 0px; border-right: 0px; border-bottom: 1px solid var(--tec-color-link-primary); border-left: 0px; border-image: initial; cursor: pointer; background-color: transparent; transition: var(--tec-transition-border-color);&quot; class=&quot;tribe-events-widget-events-list__event-title-link tribe-common-anchor-thin&quot; rel=&quot;bookmark&quot; title=&quot;Remembering Jacqui Geux – Pop-Up Exhibition at Arataki&quot; href=&quot;https://www.piha.co.nz/event/remembering-jacqui-geux-pop-up-exhibition-at-arataki/&quot;&gt;Remembering Jacqui Geux – Pop-Up Exhibition at Arataki&lt;/a&gt;&lt;/h3&gt;" style="text;html=1;strokeColor=none;fillColor=none;align=center;verticalAlign=middle;whiteSpace=wrap;rounded=0;" parent="1" vertex="1">
          <mxGeometry x="840" y="720" width="220" height="30" as="geometry" />
        </mxCell>
      </root>
    </mxGraphModel>
  </diagram>
</mxfile>
